Coordinates
version=1
nRows=8
nColumns=40
inDegrees=yes

Units are S.I. units (second, meters, Newtons, ...)
If the header above contains a line with 'inDegrees', this indicates whether rotational values are in degrees (yes) or radians (no).

endheader
time	pelvis_tilt	pelvis_list	pelvis_rotation	pelvis_tx	pelvis_ty	pelvis_tz	hip_flexion_r	hip_adduction_r	hip_rotation_r	knee_angle_r	knee_angle_r_beta	ankle_angle_r	subtalar_angle_r	mtp_angle_r	hip_flexion_l	hip_adduction_l	hip_rotation_l	knee_angle_l	knee_angle_l_beta	ankle_angle_l	subtalar_angle_l	mtp_angle_l	lumbar_extension	lumbar_bending	lumbar_rotation	arm_flex_r	arm_add_r	arm_rot_r	elbow_flex_r	pro_sup_r	wrist_flex_r	wrist_dev_r	arm_flex_l	arm_add_l	arm_rot_l	elbow_flex_l	pro_sup_l	wrist_flex_l	wrist_dev_l
      0.59500000	     -0.26467774	     -2.53629852	     -6.27906791	      0.19734443	      0.89959523	      0.23530316	    -19.18666944	     -1.85199186	    -12.76665231	     13.56208430	      0.23670302	      5.39893354	     11.50514454	      0.00000000	     25.66314623	     -9.51835726	    -28.01226668	      7.63094953	      0.13318519	     -1.77083215	     11.41968498	      0.00000000	     -2.43740219	      1.00651128	     -0.46302330	     43.63293549	    -15.87114834	     43.63293549	     75.36060191	     44.99737589	      0.00000000	      0.00000000	     43.63293549	    -15.87114834	     43.63293549	     75.36060191	     44.99737589	      0.00000000	      0.00000000
      0.60000000	     -0.02324381	     -2.19626997	     -6.33883547	      0.20503866	      0.89956963	      0.23468408	    -19.63297316	     -2.41592766	    -12.66721704	     13.96234621	      0.24368891	      4.54456050	     11.14288713	      0.00000000	     25.43573748	     -9.26074846	    -28.02754709	      8.43755563	      0.14726313	     -2.34337152	     10.60303874	      0.00000000	     -2.49939761	      0.58091390	     -0.19300892	     43.63368032	    -15.87036395	     43.63368032	     75.35996624	     44.99738872	      0.00000000	      0.00000000	     43.63368032	    -15.87036395	     43.63368032	     75.35996624	     44.99738872	      0.00000000	      0.00000000
      0.60500000	      0.25558129	     -1.75724425	     -6.45863385	      0.21266945	      0.89969945	      0.23421900	    -20.05690557	     -3.08683035	    -12.42867441	     14.43988223	      0.25202349	      3.68187253	     10.61027841	      0.00000000	     25.16905686	     -8.93424181	    -28.08622040	      9.32117163	      0.16268514	     -2.87689586	      9.56745244	      0.00000000	     -2.70535725	     -0.03823139	      0.18581014	     43.63440547	    -15.86960054	     43.63440547	     75.35934805	     44.99740117	      0.00000000	      0.00000000	     43.63440547	    -15.86960054	     43.63440547	     75.35934805	     44.99740117	      0.00000000	      0.00000000
      0.61000000	      0.55093936	     -1.28827123	     -6.61511484	      0.22032570	      0.89995198	      0.23389430	    -20.45179684	     -3.79430889	    -12.14671441	     14.97479147	      0.26135942	      2.77655021	      9.95891793	      0.00000000	     24.85287042	     -8.59208272	    -28.11525456	     10.19419633	      0.17792229	     -3.40215590	      8.48358751	      0.00000000	     -2.94016171	     -0.71268067	      0.60299472	     43.63510895	    -15.86886021	     43.63510895	     75.35874909	     44.99741319	      0.00000000	      0.00000000	     43.63510895	    -15.86886021	     43.63510895	     75.35874909	     44.99741319	      0.00000000	      0.00000000
      0.61500000	      0.85627419	     -0.82948888	     -6.74940990	      0.22799333	      0.90032974	      0.23353875	    -20.81846535	     -4.48033950	    -11.87344568	     15.56032535	      0.27157891	      1.76816032	      9.23268864	      0.00000000	     24.52976991	     -8.25414844	    -28.08297120	     11.09211807	      0.19359398	     -3.94701813	      7.40979182	      0.00000000	     -3.17348120	     -1.39474281	      1.02852508	     43.63573287	    -15.86820381	     43.63573287	     75.35821843	     44.99742381	      0.00000000	      0.00000000	     43.63573287	    -15.86820381	     43.63573287	     75.35821843	     44.99742381	      0.00000000	      0.00000000
      0.62000000	      1.16891900	     -0.33835204	     -6.88704902	      0.23562306	      0.90081996	      0.23318823	    -21.12993025	     -5.19791860	    -11.58176254	     16.22341551	      0.28315202	      0.66607056	      8.35573181	      0.00000000	     24.19949082	     -7.87521971	    -28.01637040	     11.99966172	      0.20943361	     -4.43046130	      6.25359502	      0.00000000	     -3.44345955	     -2.08991119	      1.47433405	     43.63640765	    -15.86749413	     43.63640765	     75.35764513	     44.99743525	      0.00000000	      0.00000000	     43.63640765	    -15.86749413	     43.63640765	     75.35764513	     44.99743525	      0.00000000	      0.00000000
      0.62500000	      1.53048334	      0.38019976	     -7.26153853	      0.24312449	      0.90153319	      0.23333414	    -21.31813722	     -6.19848051	    -10.91788466	     17.14414609	      0.29922180	     -0.13552032	      6.86203942	      0.00000000	     23.55811302	     -7.16068164	    -27.67373144	     12.32274061	      0.21507240	     -5.04860347	      4.35641056	      0.00000000	     -3.74463885	     -3.01496925	      2.33666601	     43.63945054	    -15.86429644	     43.63945054	     75.35506731	     44.99748630	      0.00000000	      0.00000000	     43.63945054	    -15.86429644	     43.63945054	     75.35506731	     44.99748630	      0.00000000	      0.00000000
      0.63000000	      1.82087266	      0.69682422	     -7.17728939	      0.25085235	      0.90215640	      0.23256961	    -21.59745624	     -6.67033493	    -10.92212786	     17.80681682	      0.31078758	     -1.61936372	      6.19932284	      0.00000000	     23.32737017	     -6.89972622	    -27.37557425	     13.35226521	      0.23304099	     -5.51375874	      3.57488636	      0.00000000	     -3.95597302	     -3.48748323	      2.65843939	     43.64004981	    -15.86366730	     43.64004981	     75.35456126	     44.99749624	      0.00000000	      0.00000000	     43.64004981	    -15.86366730	     43.64004981	     75.35456126	     44.99749624	      0.00000000	      0.00000000
